<svg class="position-relative z-1" style="backface-visibility: hidden" xmlns="http://www.w3.org/2000/svg" width="48" height="48" fill="currentColor"><path d="M47.725 18.275L46.5 17.049V7.164c0-3.95-3.213-7.163-7.163-7.163-1.625 0-3.125.545-4.328 1.46-5.303-2.604-11.905-1.704-16.31 2.701-4.717 4.717-5.414 11.954-2.093 17.417l-5.371 5.371H8.966a.94.94 0 0 0-.937.938v1.72h-1.72a.94.94 0 0 0-.937.938v1.72h-1.72a.94.94 0 0 0-.937.938v1.72H.994a.94.94 0 0 0-.663.275l-.057.057c-.176.176-.275.414-.275.663v6.083a.94.94 0 0 0 .937.938h6.196a.94.94 0 0 0 .663-.275l10.341-10.341a.94.94 0 0 0 0-1.326.94.94 0 0 0-1.326 0L6.745 41.062h-4.87v-4.265h1.777a.94.94 0 0 0 .937-.937v-1.72h1.72a.94.94 0 0 0 .938-.937v-1.72h1.72a.94.94 0 0 0 .938-.937v-1.72h1.72a.94.94 0 0 0 .663-.275l5.415-5.415a14.38 14.38 0 0 0 .998 1.108c2.537 2.537 5.864 3.994 9.426 4.145v15.674c0 2.171 1.766 3.937 3.937 3.937h12c2.171 0 3.937-1.766 3.937-3.937V18.937a.94.94 0 0 0-.275-.663zM39.337 1.876c2.916 0 5.288 2.372 5.288 5.288v8.011l-1.686-1.686c-.008-.008-.017-.015-.026-.023-.175-3.387-1.552-6.723-4.133-9.304-.617-.616-1.276-1.164-1.969-1.643a5.26 5.26 0 0 1 2.526-.643zm-5.288 7.951v-2.07a2.26 2.26 0 0 1 1.34 2.07 2.26 2.26 0 0 1-.666 1.607c-.886.886-2.328.886-3.214 0s-.886-2.328 0-3.214c.198-.198.424-.349.665-.458v2.065a.94.94 0 0 0 .938.938.94.94 0 0 0 .937-.938zM28.74 26.521a12.29 12.29 0 0 1-8.715-3.604c-4.805-4.805-4.805-12.624 0-17.429 2.328-2.328 5.423-3.61 8.715-3.61a12.3 12.3 0 0 1 4.865.995 7.13 7.13 0 0 0-1.292 2.886c-.781.153-1.526.531-2.13 1.135-1.617 1.617-1.617 4.248 0 5.866.809.809 1.871 1.213 2.933 1.213s2.124-.404 2.933-1.213a4.12 4.12 0 0 0 1.215-2.933 4.12 4.12 0 0 0-1.215-2.933A4.12 4.12 0 0 0 34.22 5.83a5.27 5.27 0 0 1 1.075-2.07 12.42 12.42 0 0 1 2.161 1.728 12.24 12.24 0 0 1 3.61 8.715 12.24 12.24 0 0 1-3.61 8.715c-2.403 2.403-5.558 3.604-8.715 3.604zm17.385 17.541c0 1.137-.925 2.063-2.062 2.063h-12c-1.137 0-2.063-.925-2.063-2.062V28.346a14.09 14.09 0 0 0 8.78-4.103c2.307-2.306 3.651-5.216 4.036-8.225l3.308 3.308v24.736zM23.965 9.429a.94.94 0 0 0 0-1.326.94.94 0 0 0-1.326 0 8.64 8.64 0 0 0 0 12.198c.183.183.423.275.663.275s.48-.092.663-.275a.94.94 0 0 0 0-1.326 6.76 6.76 0 0 1 0-9.547zm2.982 11.291a.94.94 0 1 0-.257 1.84.94.94 0 0 0 .901-.68.94.94 0 0 0-.644-1.159zm15.1 20.342h-7.969a.94.94 0 0 0-.937.938.94.94 0 0 0 .938.938h7.969a.94.94 0 0 0 .938-.937.94.94 0 0 0-.937-.937zM20.542 28.591c-.174-.174-.416-.275-.663-.275s-.488.1-.663.275-.275.416-.275.663.1.488.275.663.416.275.663.275.488-.1.663-.275a.94.94 0 0 0 0-1.326z"></path></svg>