<svg class="position-relative z-1" style="backface-visibility: hidden" xmlns="http://www.w3.org/2000/svg" width="48" height="48" fill="currentColor"><path d="M26.217 14.325h-5.325a.94.94 0 0 0-.937.937v3.224h-3.229c-.518 0-.937.42-.937.937v5.318a.94.94 0 0 0 .937.937h3.229v3.224a.94.94 0 0 0 .937.937h5.325a.94.94 0 0 0 .937-.937v-3.224h3.226a.94.94 0 0 0 .937-.937v-5.318a.94.94 0 0 0-.937-.937h-3.226v-3.224a.94.94 0 0 0-.937-.937zm3.226 6.036v3.444h-3.226a.94.94 0 0 0-.937.937v3.224h-3.45v-3.224a.94.94 0 0 0-.937-.937h-3.229v-3.444h3.229a.94.94 0 0 0 .937-.937V16.2h3.45v3.224a.94.94 0 0 0 .937.937h3.226zm12.855 7.211l.648-.624.024-.024c5.513-5.705 5.513-14.987 0-20.692-2.318-2.398-5.501-3.642-8.962-3.5-3.31.135-6.509 1.495-9.008 3.83l-.178.166c-.518.484-1.053.984-1.27 1.079-.217-.094-.752-.594-1.27-1.079l-.177-.166c-2.499-2.335-5.699-3.695-9.008-3.83-3.462-.142-6.643 1.102-8.96 3.5-5.515 5.705-5.515 14.987 0 20.692.008.008.015.016.023.023l4.602 4.437c.182.175.416.263.651.263.246 0 .491-.096.675-.287a.94.94 0 0 0-.024-1.325l-4.59-4.426C.664 20.623.667 12.518 5.485 7.535c3.9-4.038 10.782-3.86 15.34.398l.176.165c1.098 1.027 1.703 1.592 2.55 1.592s1.452-.566 2.55-1.592l.177-.165c4.558-4.257 11.441-4.435 15.343-.397 4.815 4.982 4.818 13.087.012 18.075l-1.429 1.376c-.462-.072-.934-.109-1.416-.109-5.078 0-9.209 4.127-9.209 9.199 0 .368.022.731.065 1.088l-6.092 5.874-7.435-7.165a.94.94 0 0 0-1.326.025c-.359.373-.348.966.025 1.325l8.085 7.792c.181.175.416.262.65.262a.94.94 0 0 0 .651-.263l5.951-5.739c1.304 3.501 4.682 6.001 8.634 6.001a9.22 9.22 0 0 0 9.213-9.2c0-3.832-2.358-7.123-5.702-8.504zm-3.51 15.831a7.34 7.34 0 0 1-7.334-7.327 7.34 7.34 0 0 1 7.334-7.324 7.34 7.34 0 0 1 7.337 7.324c0 4.04-3.291 7.327-7.337 7.327zm.001-12.202a.94.94 0 0 0-.937.937v3.941a.94.94 0 0 0 .937.937.94.94 0 0 0 .937-.937v-3.941a.94.94 0 0 0-.937-.937zm0 7.871a.94.94 0 0 0-.937.937v.005c0 .518.42.935.937.935a.94.94 0 0 0 .937-.94.94.94 0 0 0-.937-.937zm-27.011-6.105a.94.94 0 0 0 0 1.326l.003.003a.93.93 0 0 0 .661.274c.24 0 .48-.092.663-.275a.94.94 0 0 0-.001-1.327.94.94 0 0 0-1.326 0z"></path></svg>