<svg class="position-relative z-1" style="backface-visibility: hidden" xmlns="http://www.w3.org/2000/svg" width="48" height="48" fill="currentColor"><path d="M37.236 10.494c-1.022-.278-2.063-.388-3.106-.328C33.845 4.51 29.387 0 23.947 0c-4.679 0-8.632 3.337-9.827 7.869a9.67 9.67 0 0 0-3.163.324 9.85 9.85 0 0 0-.937.307.94.94 0 0 0-.539 1.211c.143.373.498.602.875.602.112 0 .225-.02.336-.063a8.08 8.08 0 0 1 .758-.249 7.83 7.83 0 0 1 2.346-.272 11.39 11.39 0 0 0-.045 1.01c0 4.936 3.114 10.72 7.388 12.57l-.435 2.271c-1.022 2.065-2.488 3.447-4.139 3.898a5.01 5.01 0 0 1-1.461.17c-1.344-.041-2.558-.562-3.437-1.069-2.785-1.608-5.199-4.748-6.007-7.814-.506-1.92-.4-3.894.305-5.709a.94.94 0 0 0-.534-1.214.94.94 0 0 0-1.213.535c-.849 2.186-.977 4.56-.37 6.865.927 3.518 3.693 7.119 6.882 8.961 1.156.667 2.319 1.084 3.454 1.246l.266 3.884a.94.94 0 0 0 .935.874.94.94 0 0 0 .246-.033l1.802-.491c.768 1.632.952 3.234 1.129 4.789.191 1.672.371 3.252 1.223 4.753.172.304.49.475.816.475a.93.93 0 0 0 .462-.123.94.94 0 0 0 .352-1.278c-.663-1.169-.815-2.499-.991-4.04-.177-1.55-.373-3.274-1.159-5.076l1.43-.39c.268-.073.491-.262.606-.515s.113-.544-.008-.795l-1.685-3.512c.598-.474 1.153-1.051 1.653-1.72.021.002.042.003.063.003h1.871c.329 1.783.099 3.381-.127 4.932-.241 1.665-.469 3.238-.028 4.912.111.421.49.699.906.699a.93.93 0 0 0 .239-.031.94.94 0 0 0 .668-1.145c-.344-1.304-.152-2.63.071-4.165.223-1.543.472-3.257.173-5.201h.744c.494 1.626 1.466 3.038 2.734 4.034l-1.677 3.495c-.12.251-.123.542-.007.795a.94.94 0 0 0 .606.515l1.43.39c-.785 1.801-.982 3.525-1.159 5.076-.176 1.541-.327 2.871-.991 4.04a.94.94 0 0 0 .352 1.278.93.93 0 0 0 .462.122.94.94 0 0 0 .816-.475c.852-1.501 1.033-3.081 1.223-4.753.177-1.555.361-3.157 1.129-4.788l1.802.491a.94.94 0 0 0 1.182-.84l.266-3.883c.609-.087 1.229-.249 1.857-.486 3.807-1.436 7.374-5.525 8.479-9.721 1.506-5.717-1.684-11.571-7.111-13.05zm-18.12 22.788l-2.876.784-.177-2.585c.336-.04.668-.103.994-.191a6.69 6.69 0 0 0 .942-.336l1.117 2.329zm3.342-6.901l.487-2.546a6.68 6.68 0 0 0 1.001.076 6.75 6.75 0 0 0 1.001-.076l.487 2.545h-2.976zm6.616 9.2l1.116-2.325a6.95 6.95 0 0 0 .944.332 6.87 6.87 0 0 0 .994.192l-.177 2.585-2.876-.784zm13.458-12.515c-.947 3.596-4.097 7.227-7.328 8.445-.713.269-1.405.415-2.071.439a.62.62 0 0 0-.053.001 5.02 5.02 0 0 1-1.453-.171c-2.05-.558-3.675-2.383-4.141-4.648l-.731-3.818a8.33 8.33 0 0 0 .718-.351c.454-.249.619-.819.369-1.273a.94.94 0 0 0-1.273-.37 6.06 6.06 0 0 1-1.149.491 5.04 5.04 0 0 1-1.475.227c-2.025 0-4.132-1.344-5.781-3.689-1.591-2.262-2.542-5.106-2.542-7.607 0-4.889 3.734-8.866 8.323-8.866s8.323 3.977 8.323 8.866c0 1.667-.438 3.552-1.233 5.306-.214.472-.005 1.027.467 1.241s1.027.005 1.241-.467c.704-1.552 1.16-3.205 1.327-4.772.897-.07 1.793.014 2.672.254 4.438 1.209 7.035 6.038 5.79 10.763zM7.16 12.422a.94.94 0 0 0 .631-.244h0a.94.94 0 0 0 .063-1.324.94.94 0 0 0-1.324-.063.94.94 0 0 0-.063 1.324c.185.204.439.307.694.307zm23.347 6.518a.94.94 0 0 0-1.321.12h0a.94.94 0 0 0 .12 1.32c.175.146.388.217.599.217.269 0 .536-.115.721-.338.332-.398.278-.989-.12-1.32zM8.391 35.519h0c-.518 0-.937.42-.937.938a.94.94 0 0 0 .938.938.94.94 0 0 0 .938-.937.94.94 0 0 0-.937-.937zm6.469 5.907h-.001c-.518 0-.937.42-.937.938a.94.94 0 0 0 .938.938.94.94 0 0 0 .938-.937.94.94 0 0 0-.937-.937z"></path></svg>