<svg class="position-relative z-1" style="backface-visibility: hidden" xmlns="http://www.w3.org/2000/svg" width="48" height="48" fill="currentColor"><path d="M41.813 45.158l-.938-30c-.049-1.561-1.284-2.783-2.812-2.783h-4.219 0V9.844C33.845 4.416 29.429 0 24.001 0a9.86 9.86 0 0 0-9.844 9.844v2.531H9.938c-1.528 0-2.763 1.223-2.812 2.783l-.938 30a2.7 2.7 0 0 0 .774 1.977C7.495 47.685 8.237 48 9 48h30c.762 0 1.505-.315 2.038-.865a2.7 2.7 0 0 0 .774-1.977zM16.032 9.844a7.98 7.98 0 0 1 7.969-7.969 7.98 7.98 0 0 1 7.969 7.969v7.219a.94.94 0 0 1-.937.938.94.94 0 0 1-.937-.937v-7.22c0-3.36-2.734-6.094-6.094-6.094s-6.094 2.734-6.094 6.094v7.219a.94.94 0 0 1-.937.938.94.94 0 0 1-.937-.937v-7.22zm12.188 2.531h-8.437 0V9.844c0-2.326 1.893-4.219 4.219-4.219s4.219 1.893 4.219 4.219v2.531zM39.693 45.83a.97.97 0 0 1-.692.295h-30a.97.97 0 0 1-.691-.295.84.84 0 0 1-.246-.613l.03-.967h4.939a.94.94 0 0 0 .938-.937.94.94 0 0 0-.937-.937h-4.88l.849-27.158c.017-.542.429-.967.938-.967h4.219v2.813c0 1.551 1.262 2.812 2.813 2.812s2.813-1.262 2.813-2.812V14.25h8.437v2.813c0 1.551 1.262 2.812 2.813 2.812s2.813-1.262 2.813-2.812V14.25h0 4.219c.509 0 .921.425.938.967l.938 30a.84.84 0 0 1-.246.613zM24.59 25.678c-.386.385-.884.291-1.177 0a5.73 5.73 0 0 0-8.074 0c-1.557 1.552-2.057 3.581-1.446 5.867 1.293 4.835 7.255 9.709 9.866 10.406.079.021.161.032.242.032s.163-.011.242-.032c2.611-.697 8.572-5.571 9.866-10.406.612-2.286.112-4.315-1.446-5.867a5.73 5.73 0 0 0-8.074 0zm7.708 5.383c-1.088 4.067-6.163 8.222-8.296 9.002-2.134-.78-7.208-4.935-8.296-9.002-.441-1.647-.127-2.973.958-4.055a3.83 3.83 0 0 1 5.426 0 2.68 2.68 0 0 0 3.824 0 3.85 3.85 0 0 1 5.426 0c1.085 1.082 1.399 2.408.958 4.055zM17.25 42.375a.94.94 0 0 0-.937.938.94.94 0 0 0 .938.938h.001c.518 0 .937-.42.937-.937a.94.94 0 0 0-.938-.937z"></path></svg>