<svg class="position-relative z-1" style="backface-visibility: hidden" xmlns="http://www.w3.org/2000/svg" width="48" height="48" fill="currentColor"><path d="M33.219 26.232a.94.94 0 0 0 .937-.937.94.94 0 0 0-.937-.937.94.94 0 0 0-.938.938.94.94 0 0 0 .938.938zm9.325-.938a.94.94 0 0 0-.939-.939h-4.151a.94.94 0 0 0-.939.939.94.94 0 0 0 .939.939h3.186a16.69 16.69 0 0 1-16.639 15.725A16.69 16.69 0 0 1 7.362 26.234h21.624a.94.94 0 0 0 .939-.939.94.94 0 0 0-.939-.939h-3.343c.078-.545.282-.877.544-1.298.384-.618.861-1.388.861-2.816s-.477-2.198-.861-2.816c-.336-.542-.579-.933-.579-1.826s.243-1.284.579-1.826c.384-.618.861-1.388.861-2.816s-.477-2.198-.861-2.816c-.148-.239-.278-.45-.377-.686L40.737 9.81a.94.94 0 0 0 .146-1.867L25.732 5.54l.231-1.569L40.951 1.87a.94.94 0 0 0 .8-1.061.94.94 0 0 0-1.061-.8L14.077 3.742a.95.95 0 0 0-.808.966c.007 1.466.427 2.264.798 2.969.325.617.582 1.104.582 2.129 0 1.007-.263 1.465-.596 2.046-.376.657-.844 1.474-.844 2.98s.468 2.323.844 2.98c.333.581.595 1.04.595 2.046s-.263 1.465-.595 2.046c-.33.575-.73 1.274-.824 2.452H6.396a.94.94 0 0 0-.939.939c0 7.052 3.958 13.197 9.768 16.332v5.434a.94.94 0 0 0 .939.939h15.671a.94.94 0 0 0 .939-.939v-5.434c5.811-3.135 9.769-9.28 9.769-16.332zM23.73 6.315c0 1.428.477 2.198.861 2.816.336.542.579.933.579 1.826s-.243 1.284-.579 1.826c-.384.618-.861 1.388-.861 2.816s.477 2.198.861 2.816c.336.541.579.933.579 1.826s-.243 1.284-.579 1.826-.737 1.189-.837 2.288h-3.49c.079-.593.294-.953.552-1.383.381-.633.854-1.421.854-2.879s-.474-2.246-.854-2.879c-.327-.544-.585-.974-.585-1.911s.258-1.367.586-1.911c.381-.633.854-1.421.854-2.879s-.474-2.246-.854-2.879c-.327-.544-.586-.974-.586-1.911v-.947l3.794-.532-.295 2.071zm-8.046 10.563c-.333-.581-.595-1.04-.595-2.046s.263-1.465.596-2.046c.376-.657.844-1.474.844-2.98 0-1.489-.424-2.294-.799-3.005-.226-.428-.419-.795-.515-1.321l3.138-.44v.683c0 1.458.473 2.246.854 2.879.327.544.586.974.586 1.911s-.258 1.367-.586 1.911c-.381.633-.854 1.421-.854 2.879s.473 2.246.854 2.879c.327.544.585.974.585 1.911s-.258 1.367-.585 1.911c-.332.552-.734 1.222-.832 2.351h-3.257c.076-.66.299-1.05.567-1.518.376-.656.844-1.473.844-2.98s-.468-2.323-.844-2.98zm15.213 29.244H17.104v-3.614c2.133.858 4.46 1.331 6.896 1.331s4.763-.473 6.896-1.331v3.614zM15.916 28.755a.94.94 0 0 0-.939.939.94.94 0 0 0 .939.939h16.168a.94.94 0 0 0 .939-.939.94.94 0 0 0-.939-.939H15.916z"></path></svg>